<svg width="100" height="40" viewBox="0 0 100 40" fill="none" xmlns="http://www.w3.org/2000/svg">
<rect opacity="0.3" width="100" height="40" rx="20" fill="#EBEBEB"/>
<path opacity="0.24" d="M27.9014 28.4494C28.136 28.9318 28.7416 29.1411 29.2471 28.8986C29.2578 28.8938 29.736 28.6772 30.0498 28.4445C30.6391 28.0076 31.0125 27.4533 31 26.7931C31.0073 26.3754 30.9275 25.7602 30.7822 24.9777C30.7434 24.7685 30.5645 23.924 30.5645 23.924C30.5282 23.7518 30.6495 23.6126 30.835 23.6125H33.2412C34.4012 23.6125 35.1962 22.6832 34.957 21.6193C34.9498 21.5834 34.1099 18.3749 33.958 18.0021C33.3924 16.5456 32.0812 15.9808 30.0029 16.0021C29.0491 15.9977 22.333 16.0021 22.333 16.0021C21.5968 16.0021 21 16.5684 21 17.2678V22.3469C21 23.0456 21.5975 23.6125 22.333 23.6125H24.8828C25.2522 23.6126 25.669 23.8834 25.8281 24.1857C25.9869 24.4875 27.893 28.4322 27.9014 28.4494ZM22.333 22.3439V17.2678C22.333 17.2678 22.8733 17.2676 23.667 17.2678V22.3439H22.333ZM27.0381 23.6535C26.6819 22.9211 25.8488 22.3921 25 22.3469V17.2678C27.1151 17.2683 29.7588 17.2696 30.0176 17.2707C31.4977 17.2555 32.2309 17.5398 32.6045 18.2219H32.335C31.9658 18.2219 31.6662 18.5031 31.666 18.8556C31.666 19.2059 31.9619 19.4904 32.335 19.4904H33.0029C33.058 19.6914 33.1167 19.9073 33.1758 20.1242H32.668C32.299 20.1243 32.0002 20.4056 32 20.758C32 21.1082 32.295 21.3926 32.668 21.3928H33.5205C33.598 21.6788 33.6488 21.8693 33.6514 21.8791C33.7144 22.1573 33.5544 22.3439 33.2412 22.3439H30.835C29.8107 22.3441 29.0557 23.2132 29.2578 24.174C29.2647 24.2066 29.4565 25.1267 29.4697 25.1974C29.6075 25.9397 29.6713 26.4708 29.666 26.7726V26.8166C29.6696 27.0058 29.5489 27.2074 29.2305 27.4435C29.1946 27.4701 28.96 27.6056 28.96 27.6056L27.0381 23.6535Z" fill="black"/>
<path d="M49.032 26V16.256H49.432L44.696 23.088L44.712 22.432H52.072V23.52H43.784V22.528L49.272 14.608H50.344V26H49.032ZM57.2818 26.112C56.5458 26.112 55.8364 25.9893 55.1538 25.744C54.4818 25.4987 53.9111 25.152 53.4418 24.704L53.9538 23.696C54.4658 24.1333 54.9938 24.464 55.5378 24.688C56.0818 24.9013 56.6524 25.008 57.2498 25.008C58.0604 25.008 58.6738 24.8267 59.0898 24.464C59.5164 24.1013 59.7298 23.568 59.7298 22.864C59.7298 22.16 59.5111 21.6373 59.0738 21.296C58.6364 20.944 57.9804 20.768 57.1058 20.768H55.7938V19.664H56.8498C57.6924 19.664 58.3378 19.4773 58.7858 19.104C59.2338 18.7307 59.4578 18.1973 59.4578 17.504C59.4578 16.8853 59.2711 16.4107 58.8978 16.08C58.5351 15.7493 58.0178 15.584 57.3458 15.584C56.7804 15.584 56.2311 15.696 55.6978 15.92C55.1644 16.1333 54.6364 16.4587 54.1138 16.896L53.6178 15.888C54.0764 15.4507 54.6418 15.1093 55.3138 14.864C55.9858 14.608 56.6791 14.48 57.3938 14.48C58.0764 14.48 58.6738 14.6027 59.1858 14.848C59.6978 15.0827 60.0871 15.4187 60.3538 15.856C60.6311 16.2933 60.7698 16.8107 60.7698 17.408C60.7698 18.112 60.5831 18.7147 60.2098 19.216C59.8471 19.7067 59.3458 20.0427 58.7058 20.224L58.6578 20.064C59.4258 20.224 60.0124 20.5493 60.4178 21.04C60.8231 21.5307 61.0258 22.1547 61.0258 22.912C61.0258 23.904 60.6898 24.688 60.0178 25.264C59.3458 25.8293 58.4338 26.112 57.2818 26.112ZM67.1635 26.112C66.4702 26.112 65.7875 25.9893 65.1155 25.744C64.4435 25.488 63.8782 25.1413 63.4195 24.704L63.9155 23.696C64.4382 24.1227 64.9662 24.448 65.4995 24.672C66.0435 24.896 66.5982 25.008 67.1635 25.008C67.9635 25.008 68.5875 24.784 69.0355 24.336C69.4942 23.8773 69.7235 23.2587 69.7235 22.48C69.7235 21.9787 69.6222 21.5413 69.4195 21.168C69.2168 20.784 68.9288 20.4853 68.5555 20.272C68.1928 20.0587 67.7608 19.952 67.2595 19.952C66.7155 19.952 66.2248 20.064 65.7875 20.288C65.3608 20.5013 64.9822 20.832 64.6515 21.28H63.7395V14.608H70.5715V15.696H65.0515V20.304L64.6355 20.256C64.9448 19.808 65.3395 19.4613 65.8195 19.216C66.3102 18.9707 66.8595 18.848 67.4675 18.848C68.1928 18.848 68.8222 19.0027 69.3555 19.312C69.8888 19.6107 70.2995 20.032 70.5875 20.576C70.8755 21.12 71.0195 21.7493 71.0195 22.464C71.0195 23.1787 70.8595 23.8133 70.5395 24.368C70.2302 24.912 69.7875 25.3387 69.2115 25.648C68.6355 25.9573 67.9528 26.112 67.1635 26.112ZM78.4533 26L74.0693 21.888L78.1173 17.968H79.7653L75.2853 22.256L75.3333 21.44L80.1493 26H78.4533ZM73.0293 26V14.224H74.3253V26H73.0293Z" fill="#192646"/>
</svg>
