<svg width="100" height="40" viewBox="0 0 100 40" fill="none" xmlns="http://www.w3.org/2000/svg">
<rect opacity="0.3" width="100" height="40" rx="20" fill="#EBEBEB"/>
<path opacity="0.24" d="M26.9014 14.5506C27.136 14.0682 27.7416 13.8589 28.2471 14.1014C28.2578 14.1062 28.736 14.3228 29.0498 14.5555C29.6391 14.9924 30.0125 15.5467 30 16.2069C30.0073 16.6246 29.9275 17.2398 29.7822 18.0223C29.7434 18.2315 29.5645 19.076 29.5645 19.076C29.5282 19.2482 29.6495 19.3874 29.835 19.3875H32.2412C33.4012 19.3875 34.1962 20.3168 33.957 21.3807C33.9498 21.4166 33.1099 24.6251 32.958 24.9979C32.3924 26.4544 31.0812 27.0192 29.0029 26.9979C28.0491 27.0023 21.333 26.9979 21.333 26.9979C20.5968 26.9979 20 26.4316 20 25.7322V20.6531C20 19.9544 20.5975 19.3875 21.333 19.3875H23.8828C24.2522 19.3874 24.669 19.1166 24.8281 18.8143C24.9869 18.5125 26.893 14.5678 26.9014 14.5506ZM21.333 20.6561V25.7322C21.333 25.7322 21.8733 25.7324 22.667 25.7322V20.6561H21.333ZM26.0381 19.3465C25.6819 20.0789 24.8488 20.6079 24 20.6531V25.7322C26.1151 25.7317 28.7588 25.7304 29.0176 25.7293C30.4977 25.7445 31.2309 25.4602 31.6045 24.7781H31.335C30.9658 24.7781 30.6662 24.4969 30.666 24.1444C30.666 23.7941 30.9619 23.5096 31.335 23.5096H32.0029C32.058 23.3086 32.1167 23.0927 32.1758 22.8758H31.668C31.299 22.8757 31.0002 22.5944 31 22.242C31 21.8918 31.295 21.6074 31.668 21.6072H32.5205C32.598 21.3212 32.6488 21.1307 32.6514 21.1209C32.7144 20.8427 32.5544 20.6561 32.2412 20.6561H29.835C28.8107 20.6559 28.0557 19.7868 28.2578 18.826C28.2647 18.7934 28.4565 17.8733 28.4697 17.8026C28.6075 17.0603 28.6713 16.5292 28.666 16.2274V16.1834C28.6696 15.9942 28.5489 15.7926 28.2305 15.5565C28.1946 15.5299 27.96 15.3944 27.96 15.3944L26.0381 19.3465Z" fill="black"/>
<path d="M46.56 25.408V15.376L47.312 15.76L44.224 17.728V16.464L47.136 14.608H47.888V25.408H46.56ZM44.048 26V24.896H50.4V26H44.048ZM52.9218 26V25.008L56.9058 20.592C57.4391 19.9947 57.8284 19.456 58.0738 18.976C58.3191 18.496 58.4418 18.016 58.4418 17.536C58.4418 16.9067 58.2604 16.4267 57.8978 16.096C57.5351 15.7547 57.0178 15.584 56.3458 15.584C55.7911 15.584 55.2471 15.696 54.7138 15.92C54.1804 16.1333 53.6471 16.4587 53.1138 16.896L52.6178 15.888C53.0658 15.4613 53.6311 15.12 54.3138 14.864C54.9964 14.608 55.6844 14.48 56.3778 14.48C57.0711 14.48 57.6684 14.6027 58.1698 14.848C58.6818 15.0827 59.0764 15.424 59.3538 15.872C59.6311 16.32 59.7698 16.8533 59.7698 17.472C59.7698 18.1227 59.6204 18.752 59.3218 19.36C59.0338 19.9573 58.5484 20.6293 57.8658 21.376L54.0258 25.536L53.9298 24.896H60.2498V26H52.9218ZM65.8755 26.112C65.1395 26.112 64.4302 25.9893 63.7475 25.744C63.0755 25.4987 62.5048 25.152 62.0355 24.704L62.5475 23.696C63.0595 24.1333 63.5875 24.464 64.1315 24.688C64.6755 24.9013 65.2462 25.008 65.8435 25.008C66.6542 25.008 67.2675 24.8267 67.6835 24.464C68.1102 24.1013 68.3235 23.568 68.3235 22.864C68.3235 22.16 68.1048 21.6373 67.6675 21.296C67.2302 20.944 66.5742 20.768 65.6995 20.768H64.3875V19.664H65.4435C66.2862 19.664 66.9315 19.4773 67.3795 19.104C67.8275 18.7307 68.0515 18.1973 68.0515 17.504C68.0515 16.8853 67.8648 16.4107 67.4915 16.08C67.1288 15.7493 66.6115 15.584 65.9395 15.584C65.3742 15.584 64.8248 15.696 64.2915 15.92C63.7582 16.1333 63.2302 16.4587 62.7075 16.896L62.2115 15.888C62.6702 15.4507 63.2355 15.1093 63.9075 14.864C64.5795 14.608 65.2728 14.48 65.9875 14.48C66.6702 14.48 67.2675 14.6027 67.7795 14.848C68.2915 15.0827 68.6808 15.4187 68.9475 15.856C69.2248 16.2933 69.3635 16.8107 69.3635 17.408C69.3635 18.112 69.1768 18.7147 68.8035 19.216C68.4408 19.7067 67.9395 20.0427 67.2995 20.224L67.2515 20.064C68.0195 20.224 68.6062 20.5493 69.0115 21.04C69.4168 21.5307 69.6195 22.1547 69.6195 22.912C69.6195 23.904 69.2835 24.688 68.6115 25.264C67.9395 25.8293 67.0275 26.112 65.8755 26.112ZM77.4533 26L73.0693 21.888L77.1173 17.968H78.7653L74.2853 22.256L74.3333 21.44L79.1493 26H77.4533ZM72.0293 26V14.224H73.3253V26H72.0293Z" fill="#192646"/>
</svg>
