<svg width="100" height="40" viewBox="0 0 100 40" fill="none" xmlns="http://www.w3.org/2000/svg">
<rect opacity="0.3" width="100" height="40" rx="20" fill="#EBEBEB"/>
<path opacity="0.24" d="M24.5556 15L30 20.6L24.5556 26.2V22.92C20.6667 22.92 17.9444 24.2 16 27C16.7778 23 19.1111 19 24.5556 18.2V15Z" fill="black"/>
<path d="M43.024 26.128C42.4373 26.128 41.888 26.08 41.376 25.984C40.864 25.8773 40.3893 25.7173 39.952 25.504C39.5147 25.28 39.12 25.008 38.768 24.688L39.264 23.68C39.84 24.16 40.416 24.5013 40.992 24.704C41.5787 24.9067 42.2613 25.008 43.04 25.008C43.9467 25.008 44.6507 24.832 45.152 24.48C45.6533 24.1173 45.904 23.6107 45.904 22.96C45.904 22.5653 45.776 22.2507 45.52 22.016C45.2747 21.7707 44.9333 21.5787 44.496 21.44C44.0693 21.2907 43.584 21.152 43.04 21.024C42.496 20.9067 41.9787 20.7733 41.488 20.624C40.9973 20.464 40.56 20.2667 40.176 20.032C39.8027 19.7973 39.5093 19.4987 39.296 19.136C39.0827 18.7733 38.976 18.32 38.976 17.776C38.976 17.1253 39.1467 16.5547 39.488 16.064C39.8293 15.5627 40.3093 15.1733 40.928 14.896C41.5467 14.6187 42.2773 14.48 43.12 14.48C43.6427 14.48 44.144 14.5387 44.624 14.656C45.104 14.7627 45.5467 14.9227 45.952 15.136C46.368 15.3493 46.736 15.6107 47.056 15.92L46.544 16.928C46.0213 16.4693 45.4827 16.1333 44.928 15.92C44.3733 15.7067 43.7707 15.6 43.12 15.6C42.2347 15.6 41.5413 15.7867 41.04 16.16C40.5387 16.5333 40.288 17.056 40.288 17.728C40.288 18.144 40.4 18.48 40.624 18.736C40.848 18.992 41.1627 19.2 41.568 19.36C41.9733 19.5093 42.4373 19.648 42.96 19.776C43.5147 19.904 44.048 20.0427 44.56 20.192C45.072 20.3413 45.5253 20.528 45.92 20.752C46.3253 20.9653 46.6453 21.248 46.88 21.6C47.1147 21.9413 47.232 22.3787 47.232 22.912C47.232 23.5627 47.0613 24.128 46.72 24.608C46.3787 25.088 45.8933 25.4613 45.264 25.728C44.6347 25.9947 43.888 26.128 43.024 26.128ZM49.2168 26V14.224H50.5128V19.584L50.3048 19.744C50.5288 19.0933 50.9021 18.6027 51.4248 18.272C51.9474 17.9307 52.5501 17.76 53.2328 17.76C55.1634 17.76 56.1288 18.8213 56.1288 20.944V26H54.8328V21.008C54.8328 20.2613 54.6834 19.7173 54.3848 19.376C54.0861 19.024 53.6168 18.848 52.9768 18.848C52.2301 18.848 51.6328 19.0773 51.1848 19.536C50.7368 19.9947 50.5128 20.6133 50.5128 21.392V26H49.2168ZM61.6641 26.112C60.9495 26.112 60.3201 25.9467 59.7761 25.616C59.2428 25.2747 58.8268 24.7947 58.5281 24.176C58.2401 23.5467 58.0961 22.8107 58.0961 21.968C58.0961 21.1253 58.2455 20.3893 58.5441 19.76C58.8428 19.1307 59.2588 18.64 59.7921 18.288C60.3361 17.936 60.9601 17.76 61.6641 17.76C62.4001 17.76 63.0241 17.9413 63.5361 18.304C64.0481 18.6667 64.3948 19.184 64.5761 19.856L64.3841 19.984V17.952H65.6641V26H64.3841V23.92L64.5761 24.016C64.3948 24.688 64.0481 25.2053 63.5361 25.568C63.0241 25.9307 62.4001 26.112 61.6641 26.112ZM61.9201 25.04C62.7095 25.04 63.3175 24.7733 63.7441 24.24C64.1708 23.696 64.3841 22.928 64.3841 21.936C64.3841 20.944 64.1655 20.1813 63.7281 19.648C63.3015 19.1147 62.6988 18.848 61.9201 18.848C61.1308 18.848 60.5121 19.1253 60.0641 19.68C59.6268 20.224 59.4081 20.9867 59.4081 21.968C59.4081 22.9493 59.6268 23.7067 60.0641 24.24C60.5121 24.7733 61.1308 25.04 61.9201 25.04ZM68.1699 26V20.208C68.1699 19.8347 68.1592 19.4613 68.1379 19.088C68.1272 18.704 68.0952 18.3253 68.0419 17.952H69.2739L69.4499 19.936L69.2739 19.888C69.4232 19.184 69.7432 18.656 70.2339 18.304C70.7352 17.9413 71.2952 17.76 71.9139 17.76C72.0525 17.76 72.1805 17.7707 72.2979 17.792C72.4259 17.8027 72.5432 17.824 72.6499 17.856L72.6179 19.04C72.3725 18.9547 72.0899 18.912 71.7699 18.912C71.2152 18.912 70.7672 19.0347 70.4259 19.28C70.0952 19.5253 69.8499 19.84 69.6899 20.224C69.5405 20.5973 69.4659 20.992 69.4659 21.408V26H68.1699ZM80.4025 25.04C80.0505 25.3707 79.5972 25.632 79.0425 25.824C78.4985 26.016 77.9385 26.112 77.3625 26.112C76.5305 26.112 75.8105 25.9467 75.2025 25.616C74.6052 25.2853 74.1412 24.8107 73.8105 24.192C73.4905 23.5627 73.3305 22.816 73.3305 21.952C73.3305 21.12 73.4905 20.3893 73.8105 19.76C74.1305 19.1307 74.5732 18.64 75.1385 18.288C75.7145 17.936 76.3758 17.76 77.1225 17.76C77.8372 17.76 78.4505 17.92 78.9625 18.24C79.4745 18.5493 79.8638 18.9973 80.1305 19.584C80.4078 20.1707 80.5465 20.8747 80.5465 21.696V21.936H74.4665V21.088H79.8105L79.3945 21.68C79.4158 20.7413 79.2292 20.0213 78.8345 19.52C78.4505 19.0187 77.8852 18.768 77.1385 18.768C76.3598 18.768 75.7465 19.0453 75.2985 19.6C74.8612 20.144 74.6425 20.9013 74.6425 21.872C74.6425 22.9173 74.8718 23.7067 75.3305 24.24C75.7998 24.7733 76.4825 25.04 77.3785 25.04C77.8478 25.04 78.2958 24.9653 78.7225 24.816C79.1598 24.656 79.5758 24.416 79.9705 24.096L80.4025 25.04Z" fill="#192646"/>
</svg>
